<svg width="476" height="409" viewBox="0 0 476 409" fill="none" xmlns="http://www.w3.org/2000/svg">
<g clip-path="url(#clip0_37_5171)">
<path d="M241.562 434.685C365.275 434.685 465.563 376.783 465.563 305.357C465.563 233.932 365.275 176.03 241.562 176.03C117.85 176.03 17.5615 233.932 17.5615 305.357C17.5615 376.783 117.85 434.685 241.562 434.685Z" fill="#F5F5F5"/>
<path d="M389.257 368.778C424.351 368.778 452.801 352.352 452.801 332.091C452.801 311.829 424.351 295.403 389.257 295.403C354.163 295.403 325.713 311.829 325.713 332.091C325.713 352.352 354.163 368.778 389.257 368.778Z" fill="#E0E0E0"/>
<path d="M228.433 351.881L156.749 310.481L238.686 263.176L310.38 304.568L228.433 351.881Z" fill="#E0E0E0"/>
<path d="M33.2344 339.072L125.692 392.452L203.244 347.693L110.787 294.312L33.2344 339.072Z" fill="#E0E0E0"/>
<path d="M169.948 88.1748V82.9246H169.946C169.929 82.4257 169.579 81.9183 168.895 81.5251L137.174 63.321C135.828 62.548 133.644 62.548 132.298 63.321L41.1095 115.652C40.424 116.046 40.0747 116.553 40.0585 117.052H40.0537V122.302H40.0585C40.0747 122.801 40.425 123.308 41.1095 123.702L72.8292 141.905C74.1753 142.678 76.3592 142.678 77.7053 141.905L168.894 89.5733C169.579 89.1802 169.928 88.6727 169.945 88.1739L169.948 88.1748Z" fill="#F0F0F0"/>
<path d="M41.1092 118.452L72.8289 136.655C74.176 137.428 76.3589 137.428 77.705 136.655L168.893 84.3231C170.24 83.55 170.24 82.2972 168.893 81.5242L137.174 63.322C135.827 62.5489 133.644 62.5489 132.297 63.322L41.1092 115.653C39.7631 116.426 39.7631 117.679 41.1092 118.452Z" fill="#FAFAFA"/>
<path d="M75.2633 137.24V142.49C74.3846 142.49 73.5068 142.288 72.8309 141.909L41.1065 123.706C40.4191 123.315 40.0707 122.8 40.0593 122.307H40.0479V117.057H40.0593C40.0669 116.857 40.145 116.657 40.2592 116.462C39.8908 117.139 40.1678 117.917 41.1065 118.456L72.8309 136.657C73.4954 137.05 74.3855 137.24 75.2633 137.24Z" fill="#E0E0E0"/>
<path d="M92.3047 92.8406L119.18 108.162L163.577 82.6828L136.705 67.3594L92.3047 92.8406Z" fill="#E0E0E0"/>
<path d="M119.487 106.997L93.5618 92.119C94.2387 90.1969 94.1882 87.955 93.4219 85.396L119.181 100.116C119.181 100.116 119.672 101.74 119.487 106.997Z" fill="white"/>
<path d="M117.857 98.0166C119.233 98.8058 120.348 100.726 120.348 102.305V107.316C120.348 108.895 119.233 109.535 117.857 108.746L92.3075 94.0829L92.3047 92.8415L117.513 107.217C118.338 107.691 119.006 107.306 119.005 106.359L118.982 101.716C118.981 100.769 118.31 99.6169 117.485 99.1428L92.3066 84.7609V83.3539L117.857 98.0166Z" fill="#EBEBEB"/>
<path d="M92.3076 83.3568L136.706 57.8774L162.253 72.5382C163.628 73.3275 164.743 75.2486 164.743 76.827L164.744 81.8374C164.743 82.6237 164.467 83.1787 164.014 83.4386L119.616 108.918C120.069 108.658 120.345 108.103 120.347 107.317L120.351 102.303C120.351 100.724 119.235 98.803 117.86 98.0138L92.3076 83.3568Z" fill="#FAFAFA"/>
<path d="M119.62 99.8635C120.07 100.639 120.35 101.514 120.349 102.303L120.345 107.318C120.343 108.104 120.068 108.658 119.614 108.919L164.013 83.4396C164.466 83.1797 164.742 82.6246 164.743 81.8383L164.742 76.8279C164.742 76.0387 164.463 75.1638 164.012 74.3879L119.62 99.8635Z" fill="#F0F0F0"/>
<path d="M64.9808 54.7101L64.7295 58.103L94.7337 74.1975L95.4106 72.2221L64.9808 54.7101Z" fill="#EBEBEB"/>
<path d="M95.0113 73.0085L65.9467 56.2314L60.8926 59.1493L90.5283 76.4872L95.0113 73.0085Z" fill="white"/>
<path d="M85.0704 74.6907L82.1973 108.371C82.1973 109.059 82.678 109.893 83.2721 110.237L100.133 119.995C100.378 120.136 100.689 120.219 101.008 120.244L90.5292 77.5838C90.2093 77.5591 89.8989 77.48 89.6543 77.3391L88.4395 76.6337L85.0704 74.6907Z" fill="#E0E0E0"/>
<path d="M91.8097 77.3391L94.8142 74.7649L97.0229 72.8733C97.2485 72.5134 97.5112 72.245 97.3703 71.9508L107.708 114.304L107.724 114.338C107.87 114.637 107.907 115.302 107.501 115.534L102.288 119.996C101.936 120.2 101.459 120.283 101.007 120.245L90.5283 77.5847C90.9805 77.6209 91.4575 77.5381 91.8097 77.3391Z" fill="#F0F0F0"/>
<path d="M97.0238 71.6281C97.6188 71.9718 97.4713 72.3554 97.0238 72.8724L91.8097 77.3372C91.2147 77.6809 90.2494 77.6809 89.6544 77.3372L85.0696 74.6897C84.4746 74.346 84.3689 73.8501 84.8344 73.5816C85.3 73.3131 86.1596 73.3741 86.7546 73.7177L90.3722 75.8064C90.5702 75.9207 90.892 75.9207 91.091 75.8064L94.9009 72.4982C95.0989 72.384 95.0989 72.1983 94.9009 72.0831L64.9805 54.7101L66.4142 53.8828L97.0238 71.6281Z" fill="#FAFAFA"/>
<path d="M56.3203 56.3372L84.9098 72.8534V127.243L56.3203 110.731V56.3372Z" fill="#EBEBEB"/>
<path d="M83.99 73.7558L56.3202 57.8765C54.895 59.5244 52.7816 60.6744 49.9932 61.3351L77.4279 77.1459C77.4279 77.1459 79.2005 76.7327 83.99 73.7558Z" fill="white"/>
<path d="M74.7691 77.0526C76.237 77.8951 78.618 77.8951 80.0869 77.0526L84.746 74.3785C86.214 73.5359 86.214 72.1698 84.746 71.3273L57.476 55.6774L56.3203 56.3371L83.1409 71.8271C84.0215 72.3326 84.0215 73.1523 83.14 73.6568L78.8103 76.113C77.9287 76.6176 76.4998 76.6176 75.6192 76.1121L48.8071 60.6516L47.499 61.4017L74.7691 77.0526Z" fill="#FAFAFA"/>
<path d="M47.502 61.4008V115.791L74.7691 131.439C76.2371 132.282 78.619 132.282 80.0861 131.439L84.7461 128.766C85.4763 128.345 85.8447 127.796 85.8447 127.24V72.8505C85.8447 73.4055 85.4763 73.9548 84.7461 74.3765L80.0861 77.0554C78.6181 77.898 76.2362 77.898 74.7691 77.0554L47.502 61.4008Z" fill="#EBEBEB"/>
<path d="M77.4277 77.6866C78.3902 77.6866 79.3527 77.4762 80.0867 77.0554L84.7467 74.3765C85.4769 73.9557 85.8453 73.4064 85.8453 72.8505V127.241C85.8453 127.796 85.4769 128.345 84.7467 128.767L80.0867 131.44C79.3527 131.861 78.3902 132.072 77.4277 132.072V77.6866Z" fill="#F0F0F0"/>
<path d="M307.503 275.078C306.854 263.669 301.802 240.829 308.46 219.754C311.843 209.042 319.614 197.692 331.185 194.494C335.277 193.362 340.338 193.513 342.352 198.177C342.69 198.961 342.879 199.806 342.94 200.657C343.191 204.202 341.581 207.338 339.788 210.234C335.69 216.857 330.482 222.737 326.329 229.326C324.127 232.819 322.24 236.485 320.607 240.264" stroke="#27DEBF" strokeWidth="0.8828" strokeMiterlimit="10"/>
<path d="M307.23 282.534C307.23 283.902 307.591 285.617 307.288 286.923C307.197 287.317 307.116 287.746 307.285 288.114C307.454 288.481 307.985 288.698 308.277 288.417C308.487 288.215 308.708 286.745 308.843 286.371C309.131 285.575 309.568 284.802 309.943 284.043C310.7 282.504 311.509 280.989 312.363 279.502C314.128 276.435 316.095 273.483 318.248 270.674C322.486 265.141 327.442 260.155 332.973 255.911C338.975 251.306 345.615 247.567 351.483 242.792C353.212 241.385 354.935 239.797 355.678 237.695C356.786 234.555 355.315 230.888 352.705 228.819C350.096 226.752 346.587 226.099 343.266 226.344C340.089 226.579 335.808 227.947 332.295 229.861C325.136 233.76 320.217 239.801 316.283 246.642C311.032 255.771 308.042 266.165 307.23 276.645C307.23 278.608 307.23 280.571 307.23 282.534Z" stroke="#27DEBF" strokeWidth="0.8828" strokeMiterlimit="10"/>
<path d="M348.097 232.044C334.549 235.923 314.469 251.481 307.23 280.362" stroke="#27DEBF" strokeWidth="0.8828" strokeMiterlimit="10" strokeLinecap="round" strokeLinejoin="round"/>
<path d="M334.165 200.666C326.852 206.487 309.388 224.923 307.187 254.726" stroke="#27DEBF" strokeWidth="0.8828" strokeMiterlimit="10" strokeLinecap="round" strokeLinejoin="round"/>
<path d="M304.54 137.167L251.606 106.649C250.483 106.001 249.465 105.939 248.729 106.365C248.045 106.76 245.603 108.175 244.916 108.565C244.173 108.986 243.713 109.901 243.713 111.206L243.714 256.067C243.714 258.662 245.536 261.817 247.783 263.114L300.716 293.632C301.839 294.281 302.857 294.342 303.593 293.916C304.276 293.521 306.735 292.107 307.424 291.706C308.156 291.279 308.609 290.369 308.609 289.075V144.214C308.609 141.619 306.788 138.464 304.54 137.167Z" fill="#263238"/>
<path d="M255.164 258.561L251.348 260.765L251.349 272.812C251.349 273.461 251.805 274.25 252.366 274.575L254.148 275.604C254.71 275.928 255.621 275.928 256.183 275.604L257.965 274.575C258.527 274.25 259.154 273.49 259.367 272.877L262.801 262.969L255.164 258.561Z" fill="#263238"/>
<path d="M251.348 272.812C251.348 273.461 251.803 274.25 252.365 274.575L254.147 275.604C254.709 275.928 255.337 275.694 255.549 275.081L258.983 265.172L251.348 260.764V272.812Z" fill="#37474F"/>
<path d="M293.335 280.55L289.518 282.754L289.519 294.802C289.519 295.45 289.974 296.239 290.536 296.564L292.318 297.593C292.88 297.917 293.791 297.917 294.353 297.593L296.135 296.564C296.697 296.239 297.324 295.479 297.536 294.866L300.97 284.957L293.335 280.55Z" fill="#263238"/>
<path d="M289.519 294.803C289.519 295.451 289.974 296.24 290.535 296.565L292.317 297.594C292.879 297.918 293.506 297.684 293.719 297.071L297.153 287.162L289.518 282.754L289.519 294.803Z" fill="#37474F"/>
<path d="M248.054 108.926L300.988 139.443C303.236 140.74 305.057 143.895 305.057 146.491V291.352C305.057 292.649 304.602 293.56 303.865 293.986C303.129 294.411 302.112 294.349 300.988 293.701L248.055 263.184C245.808 261.886 243.986 258.731 243.986 256.136L243.985 111.275C243.985 109.971 244.446 109.056 245.189 108.634C245.924 108.216 246.937 108.281 248.054 108.926Z" fill="#37474F"/>
<path d="M171.189 306.992L228.445 340.048L308.601 293.77L304.785 291.566L247.529 258.51L171.189 302.584V306.992Z" fill="#455A64"/>
<path d="M228.444 340.048V335.641L308.601 289.362V293.77L228.444 340.048Z" fill="#263238"/>
<path d="M228.515 333.437C239.223 317.237 238.627 288.595 237.706 283.76C237.706 283.76 242.223 314.038 247.786 322.684" stroke="#FAFAFA" strokeWidth="0.7403" strokeMiterlimit="10"/>
<path d="M239.614 294.763C241.453 303.59 262.338 309.82 262.338 309.82" stroke="#FAFAFA" strokeWidth="0.7403" strokeMiterlimit="10"/>
<path d="M237.556 303.542C238.145 302.109 241.048 301.91 241.6 304.239C241.6 304.239 241.935 299.953 244.351 301.168" stroke="#FAFAFA" strokeWidth="0.7403" strokeMiterlimit="10"/>
<path d="M236.728 309.819C237.802 307.516 241.764 306.251 243.504 311.712C243.504 311.712 243.767 301.939 250.231 304.877" stroke="#FAFAFA" strokeWidth="0.7403" strokeMiterlimit="10"/>
<path d="M234.888 318.472C237.153 314.111 243.369 312.37 244.967 316.392C245.004 311.426 250.688 305.166 257.627 308.178" stroke="#FAFAFA" strokeWidth="0.7403" strokeMiterlimit="10"/>
<path d="M231.048 328.973C233.709 324.139 240.231 315.417 245.92 318.932" stroke="#FAFAFA" strokeWidth="0.7403" strokeMiterlimit="10"/>
<path d="M300.966 245.287L300.97 249.693L228.444 291.567L171.188 258.51V254.103L243.714 212.232L300.966 245.287Z" fill="#263238"/>
<path d="M300.966 245.287L228.444 287.158L171.188 254.103L243.714 212.232L300.966 245.287Z" fill="#455A64"/>
<path d="M300.966 196.805L300.97 201.21L228.444 243.083L171.188 210.026V205.619L243.714 163.748L300.966 196.805Z" fill="#263238"/>
<path d="M300.966 196.805L228.444 238.675L171.188 205.619L243.714 163.748L300.966 196.805Z" fill="#455A64"/>
<path d="M228.198 181.19L175.264 150.673C174.141 150.024 173.123 149.963 172.387 150.388C171.704 150.783 169.261 152.199 168.574 152.588C167.831 153.01 167.371 153.925 167.371 155.229L167.372 300.09C167.372 302.685 169.194 305.84 171.441 307.138L224.374 337.655C225.497 338.303 226.515 338.365 227.251 337.94C227.934 337.545 230.393 336.13 231.082 335.729C231.814 335.303 232.267 334.393 232.267 333.099V188.238C232.268 185.643 230.446 182.488 228.198 181.19Z" fill="#263238"/>
<path opacity="0.2" d="M228.444 203.42L232.268 201.216V187.986L228.433 190.194L228.444 203.42Z" fill="black"/>
<path opacity="0.2" d="M304.797 159.349L308.621 157.145V143.915L304.785 146.123L304.797 159.349Z" fill="black"/>
<path d="M178.822 302.584L175.006 304.788L175.007 316.836C175.007 317.484 175.462 318.273 176.024 318.598L177.806 319.627C178.367 319.952 179.278 319.952 179.84 319.627L181.622 318.598C182.184 318.273 182.811 317.514 183.025 316.901L186.458 306.992L178.822 302.584Z" fill="#263238"/>
<path d="M175.007 316.836C175.007 317.484 175.462 318.273 176.024 318.598L177.806 319.627C178.367 319.952 178.995 319.717 179.207 319.104L182.641 309.196L175.006 304.788L175.007 316.836Z" fill="#37474F"/>
<path d="M216.993 324.575L213.177 326.778L213.178 338.826C213.178 339.474 213.633 340.264 214.194 340.588L215.977 341.617C216.538 341.942 217.449 341.942 218.011 341.617L219.793 340.588C220.355 340.264 220.982 339.504 221.195 338.891L224.629 328.981L216.993 324.575Z" fill="#263238"/>
<path d="M213.178 338.826C213.178 339.475 213.633 340.264 214.194 340.588L215.977 341.617C216.538 341.942 217.166 341.708 217.378 341.095L220.812 331.186L213.177 326.778L213.178 338.826Z" fill="#37474F"/>
<path d="M171.441 152.879L224.375 183.397C226.623 184.694 228.444 187.849 228.444 190.444V335.306C228.444 336.603 228.445 340.048 228.445 340.048C228.445 340.048 225.498 338.303 224.375 337.655L171.442 307.138C169.195 305.84 167.373 302.685 167.373 300.09L167.372 155.229C167.372 153.925 167.832 153.01 168.575 152.588C169.31 152.17 170.323 152.234 171.441 152.879Z" fill="#37474F"/>
<path opacity="0.2" d="M224.375 183.397L171.441 152.879C170.323 152.234 169.311 152.17 168.575 152.588C167.832 153.01 167.372 153.925 167.372 155.229V168.161L228.444 203.421V190.445C228.444 187.849 226.622 184.694 224.375 183.397Z" fill="black"/>
<path d="M255.163 176.972L297.15 152.73L297.151 196.805" stroke="#FAFAFA" strokeWidth="0.7403" strokeMiterlimit="10" strokeLinecap="round" strokeLinejoin="round"/>
<path d="M289.516 185.786L297.15 152.73L281.882 179.175" stroke="#FAFAFA" strokeWidth="0.7403" strokeMiterlimit="10" strokeLinecap="round" strokeLinejoin="round"/>
<path d="M297.15 152.73L274.248 174.767" stroke="#FAFAFA" strokeWidth="0.7403" strokeMiterlimit="10" strokeLinecap="round" strokeLinejoin="round"/>
<path d="M297.151 189.772C297.16 183.592 290.102 183.25 290.102 183.25C290.535 181.378 290.065 178.372 287.789 176.427C285.513 174.482 283.974 175.55 283.515 176.346C283.515 176.346 283.993 170.667 279.082 170.116C279.082 170.116 282.338 164.109 279.082 163.162" stroke="#FAFAFA" strokeWidth="0.7403" strokeMiterlimit="10" strokeLinecap="round" strokeLinejoin="round"/>
<path d="M297.15 180.276C296.9 177.115 294.482 173.093 291.999 175.032C291.999 175.032 292.655 168.133 287.735 169.038C287.735 169.038 290.041 162.638 285.205 164.223C285.205 164.223 288.689 159.818 285.988 159.174" stroke="#FAFAFA" strokeWidth="0.7403" strokeMiterlimit="10" strokeLinecap="round" strokeLinejoin="round"/>
<path d="M317.657 137.309C317.664 136.459 317.108 135.609 315.983 134.96L259.231 102.194C256.984 100.896 253.34 100.896 251.093 102.194L163.806 152.589C162.681 153.238 162.125 154.088 162.132 154.939C162.139 155.727 162.139 158.558 162.132 159.346C162.125 160.196 162.681 161.046 163.806 161.695L220.558 194.46C222.805 195.758 226.449 195.758 228.696 194.46L315.983 144.065C317.108 143.416 317.664 142.565 317.657 141.715C317.651 140.928 317.651 138.097 317.657 137.309Z" fill="#37474F"/>
<path d="M220.559 190.052L163.807 157.287C161.56 155.99 161.56 153.887 163.807 152.589L251.094 102.194C253.342 100.896 256.985 100.896 259.232 102.194L315.983 134.96C318.23 136.258 318.23 138.361 315.983 139.658L228.697 190.053C226.45 191.35 222.806 191.35 220.559 190.052Z" fill="#455A64"/>
<path opacity="0.1" d="M304.784 150.526L278.067 183.582L232.268 210.031L232.261 192.397L304.784 150.526Z" fill="black"/>
<path opacity="0.1" d="M300.971 201.21L278.067 232.065L232.269 258.513L232.268 240.877L300.971 201.21Z" fill="black"/>
<path opacity="0.1" d="M300.971 249.695L278.067 280.549L232.269 306.998V289.358L300.971 249.695Z" fill="black"/>
<path d="M195.905 345.99L125.683 386.531L46.6084 340.775L116.83 300.234L195.905 345.99Z" fill="#27DEBF"/>
<path opacity="0.5" d="M195.905 345.99L125.683 386.531L46.6084 340.775L116.83 300.234L195.905 345.99Z" fill="black"/>
<path d="M116.831 245.279L116.83 300.234L46.6084 340.775L46.6093 285.82L116.831 245.279Z" fill="#27DEBF"/>
<path opacity="0.23" d="M116.831 245.279L116.83 300.234L46.6084 340.775L46.6093 285.82L116.831 245.279Z" fill="black"/>
<path d="M125.683 331.572V386.531L46.6084 340.775L46.6093 285.819L125.683 331.572Z" fill="#27DEBF"/>
<path opacity="0.38" d="M125.683 331.572V386.531L46.6084 340.775L46.6093 285.819L125.683 331.572Z" fill="black"/>
<path d="M195.904 291.03V345.99L116.829 300.234L116.83 245.279L195.904 291.03Z" fill="#27DEBF"/>
<path opacity="0.4" d="M195.904 291.03V345.99L116.829 300.234L116.83 245.279L195.904 291.03Z" fill="black"/>
<path d="M195.904 345.99V291.03L125.683 331.572V386.531L195.904 345.99Z" fill="#27DEBF"/>
<path opacity="0.23" d="M195.904 345.99V291.03L125.683 331.572V386.531L195.904 345.99Z" fill="black"/>
<path d="M116.83 245.279L116.928 214.853L195.808 260.663L195.904 291.03L116.83 245.279Z" fill="#27DEBF"/>
<path opacity="0.2" d="M116.83 245.279L116.928 214.853L195.808 260.663L195.904 291.03L116.83 245.279Z" fill="black"/>
<path d="M125.683 331.572L132.268 304.956L201.853 264.781L195.904 291.03L125.683 331.572Z" fill="#27DEBF"/>
<path opacity="0.3" d="M125.683 331.572L132.268 304.956L201.853 264.781L195.904 291.03L125.683 331.572Z" fill="black"/>
<path d="M46.6091 285.819L38.2334 258.213L108.454 217.672L116.831 245.279L46.6091 285.819Z" fill="#27DEBF"/>
<path opacity="0.1" d="M46.6091 285.819L38.2334 258.213L108.454 217.672L116.831 245.279L46.6091 285.819Z" fill="black"/>
<path d="M46.6089 285.82L30.0869 263.004L109.169 308.755L125.683 331.572L46.6089 285.82Z" fill="#27DEBF"/>
<path opacity="0.45" d="M46.6089 285.82L30.0869 263.004L109.169 308.755L125.683 331.572L46.6089 285.82Z" fill="black"/>
<g opacity="0.7">
<path d="M146.358 370.186C146.119 370.186 145.927 369.992 145.927 369.755V360.084C145.927 359.846 146.12 359.653 146.358 359.653C146.597 359.653 146.789 359.847 146.789 360.084V369.755C146.789 369.992 146.596 370.186 146.358 370.186Z" fill="white"/>
<path d="M145.094 363.433C145.037 363.433 144.979 363.422 144.923 363.398C144.704 363.304 144.603 363.049 144.698 362.83L146.235 359.282L147.947 361.261C148.103 361.441 148.083 361.714 147.903 361.871C147.723 362.022 147.45 362.007 147.295 361.827L146.481 360.887L145.491 363.174C145.42 363.335 145.262 363.433 145.094 363.433Z" fill="white"/>
<path d="M150.349 367.91C150.11 367.91 149.918 367.715 149.918 367.478V357.809C149.918 357.571 150.111 357.378 150.349 357.378C150.587 357.378 150.78 357.572 150.78 357.809V367.478C150.78 367.715 150.587 367.91 150.349 367.91Z" fill="white"/>
<path d="M149.087 361.157C149.03 361.157 148.972 361.146 148.916 361.122C148.697 361.028 148.596 360.772 148.691 360.553L150.227 357.008L151.939 358.984C152.095 359.164 152.076 359.437 151.896 359.592C151.715 359.749 151.444 359.729 151.287 359.55L150.473 358.609L149.484 360.897C149.412 361.059 149.254 361.157 149.087 361.157Z" fill="white"/>
</g>
<g opacity="0.7">
<path d="M134.851 376.749C134.683 376.749 134.523 376.708 134.38 376.627C134.052 376.439 133.863 376.062 133.863 375.59V374.407C133.863 374.169 134.057 373.976 134.295 373.976C134.533 373.976 134.726 374.17 134.726 374.407V375.59C134.726 375.767 134.774 375.859 134.808 375.877C134.839 375.901 134.941 375.89 135.089 375.803C135.47 375.58 135.892 374.725 135.892 373.852V368.901C135.892 368.663 136.085 368.47 136.323 368.47C136.562 368.47 136.754 368.664 136.754 368.901V373.852C136.754 374.978 136.227 376.137 135.526 376.548C135.302 376.681 135.069 376.749 134.851 376.749Z" fill="white"/>
<path d="M130.307 372.761V372.014C130.307 368.5 132.782 364.209 135.826 362.453C137.383 361.556 138.87 361.423 140.008 362.082C141.15 362.741 141.778 364.094 141.778 365.89V366.14L130.307 372.761ZM138.409 362.531C137.759 362.531 137.026 362.756 136.258 363.2C133.671 364.692 131.53 368.169 131.211 371.243L140.91 365.643C140.86 364.293 140.391 363.298 139.576 362.828C139.233 362.631 138.839 362.531 138.409 362.531Z" fill="white"/>
</g>
<path opacity="0.7" d="M30.0869 263.004L109.169 308.755L125.683 331.572L108.29 309.561L30.0869 263.004Z" fill="white"/>
<path opacity="0.7" d="M195.904 291.03L125.683 331.572V386.531L126.993 332.676L195.904 291.03Z" fill="white"/>
<path d="M92.8551 269.047C100.1 267.999 106.718 263.358 110.918 257.466C112.874 254.722 114.36 251.651 115.202 248.385C115.975 245.388 116.409 242.023 115.644 238.978C114.334 233.759 109.498 230.664 104.384 230.011C101.806 229.682 99.1364 229.921 96.6774 230.771C94.0566 231.676 91.9165 233.324 90.3019 235.575C89.4632 236.744 88.5845 238.197 88.5454 239.681C88.5112 240.973 89.4356 241.896 90.676 242.108C92.1726 242.362 93.7519 241.723 95.0324 241.003C96.6117 240.115 97.9664 238.955 99.0955 237.54C101.402 234.65 103.368 231.118 104.372 227.541C105.24 224.451 105.053 221.076 104.391 217.967C103.716 214.789 102.398 211.543 100.072 209.207C97.6389 206.765 94.1603 205.556 90.8064 205.118C87.403 204.673 83.8245 204.98 80.5762 206.103C79.1777 206.587 77.7336 207.232 76.6483 208.249C75.8315 209.014 74.8976 210.274 75.2317 211.505C75.603 212.879 77.3728 213.291 78.5999 213.133C80.3916 212.903 82.1004 211.788 83.3694 210.551C84.7669 209.187 86.0255 207.523 86.9556 205.804C87.641 204.536 88.0618 203.126 88.0323 201.675C87.9095 195.632 81.2398 191.729 76.0085 190.627C74.5891 190.328 73.1573 190.235 71.7131 190.344C71.2286 190.38 71.5237 191.141 71.9168 191.112C74.6634 190.905 77.4908 191.731 79.9279 192.946C82.2917 194.126 84.5413 195.871 85.8408 198.214C87.1498 200.573 86.9975 203.285 85.618 205.579C84.6736 207.15 83.5293 208.745 82.1699 209.98C81.0361 211.01 79.3329 212.197 77.7183 212.081C77.2452 212.046 76.6426 211.821 76.4636 211.294C76.2513 210.671 76.7244 209.946 77.031 209.565C77.8021 208.608 78.9816 208.03 80.104 207.532C82.8925 206.294 86.1102 205.892 89.1366 206.05C92.2535 206.213 95.4969 207.015 98.0302 208.913C100.41 210.697 101.811 213.459 102.658 216.252C103.533 219.139 103.9 222.297 103.492 225.298C103.076 228.354 101.621 231.279 100.04 233.887C98.2777 236.793 96.0662 239.566 92.7533 240.741C91.9345 241.032 90.221 241.463 89.8935 240.268C89.5707 239.093 90.5037 237.619 91.1082 236.695C92.4829 234.596 94.3212 232.973 96.6469 232.02C98.827 231.127 101.244 230.793 103.59 230.97C108.073 231.309 112.626 233.651 114.188 238.105C115.102 240.715 114.916 243.615 114.428 246.293C113.889 249.255 112.786 252.107 111.277 254.708C108.04 260.285 102.985 264.474 97.103 267.03C95.693 267.642 94.2298 268.152 92.7704 268.634C92.6162 268.69 92.6838 269.072 92.8551 269.047Z" fill="#E0E0E0"/>
<path d="M62.5918 186.393C58.7334 186.121 53.5383 189.115 55.4033 191.307C57.2692 193.498 62.2244 189.953 62.2244 189.953C62.2244 189.953 61.7569 194.382 63.3782 194.882C64.9985 195.381 67.1433 191.164 65.5649 188.464C65.5649 188.464 67.9982 189.544 70.2983 187.848C72.5983 186.153 70.1593 184.559 66.913 184.843C66.913 184.843 69.2358 177.251 64.5434 178.685C62.2253 179.395 61.3923 182.15 62.5918 186.393Z" fill="#27DEBF"/>
<path opacity="0.65" d="M62.5918 186.393C58.7334 186.121 53.5383 189.115 55.4033 191.307C57.2692 193.498 62.2244 189.953 62.2244 189.953C62.2244 189.953 61.7569 194.382 63.3782 194.882C64.9985 195.381 67.1433 191.164 65.5649 188.464C65.5649 188.464 67.9982 189.544 70.2983 187.848C72.5983 186.153 70.1593 184.559 66.913 184.843C66.913 184.843 69.2358 177.251 64.5434 178.685C62.2253 179.395 61.3923 182.15 62.5918 186.393Z" fill="white"/>
<path d="M66.1346 188.011C65.9281 187.804 65.7005 187.611 65.4682 187.432C65.1341 187.174 64.7866 186.932 64.4467 186.682C64.1221 186.444 63.7803 186.236 63.4271 186.043C63.2225 185.932 63.013 185.828 62.7998 185.735C62.4704 185.591 62.1857 185.538 61.824 185.584C61.4879 185.626 61.19 186.008 61.4413 186.327C61.7412 186.708 62.1086 186.781 62.4409 186.953C62.6151 187.042 62.7865 187.137 62.955 187.236C63.3043 187.441 63.6242 187.68 63.9498 187.92C64.2744 188.159 64.6105 188.381 64.9304 188.626C65.4359 189.012 65.95 189.397 66.5554 189.612C66.6097 189.631 66.6801 189.622 66.722 189.581C67.1238 189.195 66.4145 188.292 66.1346 188.011Z" fill="#455A64"/>
<path d="M369.648 81.6669C365.483 87.2618 359.917 118.042 357.813 127.908C347.692 127.615 334.155 127.144 329.028 126.604C323.349 126.006 311.123 124.838 305.139 125.622C290.279 127.568 290.87 137.292 291.215 139.835C291.611 142.757 293.695 144.084 301.647 142.269C303.428 141.863 305.268 141.664 307.094 141.627C307.871 141.612 309.494 141.241 310.102 141.899C311.016 142.887 308.308 144.446 307.621 144.888C306.562 145.572 305.46 146.437 305.236 147.677C305.153 148.137 305.241 148.684 305.634 148.937C305.982 149.161 306.436 149.08 306.838 148.985C310.483 148.123 314.013 146.78 317.309 145C318.587 144.309 319.843 143.547 321.226 143.1C323.292 142.433 325.419 142.831 327.502 142.831C331.963 142.831 355.56 145.166 366.05 146.234C373.314 146.974 374.09 139.797 376.592 132.541C379.704 123.516 386.988 76.132 386.988 76.132C379.644 75.0838 374.596 75.021 369.648 81.6669Z" fill="#FFA8A7"/>
<path d="M387.101 75.4085C383.586 74.765 375.689 73.7797 371.38 78.5863C367.071 83.393 366.057 88.4462 364.16 95.7175C362.265 102.989 358.937 116.053 358.937 116.053C358.937 116.053 364.483 124.017 381.86 121.76L387.101 75.4085Z" fill="#37474F"/>
<path d="M430.731 327.137L418.515 327.15L415.008 300.629L430.42 300.024L430.731 327.137Z" fill="#FFA8A7"/>
<path d="M390.183 313.899C388.099 317.498 381.431 317.206 375.866 315.931L375.227 289.864L391.563 289.223L390.183 313.899Z" fill="#FFA8A7"/>
<path d="M429.901 159.606C430.342 170.884 428.852 237.593 428.852 237.593C429.253 240.828 432.604 246.474 433.305 258.154C434.322 275.09 430.862 311.32 430.862 311.32C430.862 311.32 423.867 314.976 416.33 312.178C416.33 312.178 408.652 259.783 405.878 243.088C403.457 228.518 400.35 189.45 400.35 189.45L394.324 239.529C394.324 239.529 396.01 247.447 395.69 257.51C395.442 265.293 391.007 303.106 391.007 303.106C391.007 303.106 383.561 305.895 375.378 303.483C375.378 303.483 371.735 244.8 371.319 237.685C370.845 229.573 371.17 157.976 371.17 157.976L429.901 159.606Z" fill="#27DEBF"/>
<path opacity="0.2" d="M400.351 189.45C400.351 189.45 389.681 186.426 382.409 179.931C382.409 179.931 385.815 185.747 395.469 190.907L394.916 234.614L400.351 189.45Z" fill="black"/>
<path d="M404.557 349.255C404.162 349.656 404.39 352.287 404.87 352.979C405.385 353.722 408.262 355.987 413.311 356.15C418.136 356.307 422.406 355.489 425.161 353.585C427.915 351.681 429.205 349.649 429.363 346.898C429.521 344.147 429.112 341.515 430.337 339.354C431.467 337.359 433.303 335.088 433.68 334.016C434.501 331.683 433.493 328.433 433.493 328.433L404.557 349.255Z" fill="#263238"/>
<path d="M416.787 324.813C416.795 325.879 416.645 326.856 416.352 327.886C415.738 330.038 414.757 332.08 413.642 334.03C413.068 335.033 412.459 336.021 411.746 336.939C410.359 338.728 408.608 340.221 407.132 341.942C405.656 343.663 404.426 345.729 404.393 347.964C404.336 351.746 408.482 352.867 411.657 353.305C415.047 353.772 418.634 353.452 421.883 352.389C425.499 351.207 428.027 348.271 428.49 344.599C428.623 343.544 428.517 342.476 428.6 341.416C428.788 339 429.947 336.754 431.276 334.699C432.047 333.507 432.889 332.34 433.386 331.018C434.279 328.643 433.387 326.046 432.667 323.744C432.044 321.757 431.347 319.506 430.647 319.723C430.646 320.776 430.689 320.873 429.97 321.609C429.059 322.539 429.071 323.884 428.103 324.713C428.523 323.47 428.532 322.949 428.699 322.001C428.748 321.718 428.65 321.15 428.444 320.943C428.167 320.664 427.71 320.501 427.261 320.369C425.757 319.925 424.204 319.637 422.638 319.506C421.207 319.386 419.565 319.277 418.166 319.649C417.735 319.763 417.321 319.987 417.067 320.343C416.8 320.718 416.761 321.043 416.717 321.648C416.672 322.254 416.781 323.809 416.787 324.813Z" fill="#455A64"/>
<path d="M413.165 334.841C414.529 333.734 417.676 333.596 419.405 333.713C421.57 333.859 423.345 334.547 424.365 335.238C424.817 335.544 425.429 335.464 425.801 335.067C426.249 334.591 426.176 333.837 425.632 333.468C424.551 332.736 422.607 331.723 420.046 331.643C415.798 331.511 414.583 332.286 414.583 332.286C414.583 332.286 412.7 333.606 413.165 334.841Z" fill="#F5F5F5"/>
<path d="M410.085 338.834C411.811 337.72 415.28 337.735 417.009 337.852C419.174 337.999 420.819 338.783 421.839 339.475C422.291 339.782 422.904 339.702 423.276 339.305C423.723 338.828 423.651 338.074 423.106 337.705C422.026 336.973 419.956 335.803 417.394 335.723C413.147 335.591 412.077 336.499 412.077 336.499C412.077 336.499 410.316 337.262 410.085 338.834Z" fill="#F5F5F5"/>
<path d="M421.573 327.523C418.635 327.335 417.406 327.711 416.265 328.179C415.535 328.626 415.089 329.825 415.582 330.105C416.504 329.544 418.193 329.26 420.277 329.272C421.675 329.279 423.456 329.775 424.907 330.35C425.276 330.497 425.714 330.705 426.097 330.899C426.615 331.16 427.251 330.935 427.475 330.41C427.663 329.966 427.49 329.452 427.061 329.215C426.013 328.636 423.949 327.674 421.573 327.523Z" fill="#F5F5F5"/>
<path d="M347.99 330.15C347.551 330.965 347.593 332.534 348.019 333.548C348.445 334.562 353.485 337.728 360.492 337.588C367.499 337.449 372.43 334.863 375.176 333.226C377.923 331.59 380.711 331.392 384.179 331.358C387.648 331.324 392.271 329.816 393.107 328.234C393.943 326.653 393.202 323.824 393.202 323.824L347.99 330.15Z" fill="#263238"/>
<path d="M377.214 309.689C377.034 309.641 376.851 309.595 376.666 309.549C376.365 309.474 376.052 309.399 375.748 309.456C375.401 309.521 375.109 309.749 374.857 309.997C374.067 310.777 373.565 311.795 372.94 312.714C371.363 315.033 368.195 316.864 364.753 318.509C362.413 319.628 360.132 320.472 357.725 321.421C355.271 322.388 352.049 322.896 350.109 324.075C347.28 325.792 346.706 330.417 349.742 332.398C352.361 334.107 359.367 336.157 366.902 334.405C371.007 333.45 375.708 329.336 381.044 329.173C384.436 329.069 390.874 328.422 393.172 325.96C394.031 324.859 393.128 321.199 392.394 318.042C391.594 314.596 391.958 309.437 390.422 309.497L390.326 311.219C390.183 311.736 388.968 312.239 388.593 312.635C388.135 313.119 387.677 313.602 387.219 314.085C386.619 314.717 385.999 315.366 385.204 315.722C383.835 316.334 382.25 315.969 380.798 315.594C380.731 315.577 381.531 312.945 381.611 312.69C381.677 312.481 381.748 312.259 381.692 312.048C381.634 311.835 381.457 311.677 381.282 311.541C380.02 310.564 378.693 310.082 377.214 309.689Z" fill="#455A64"/>
<path d="M367.997 316.82C367.997 316.82 368.544 315.547 370.573 315.268C372.125 315.055 374.788 316.317 376.411 317.789C377.075 318.391 376.933 319.468 376.129 319.864C375.65 320.099 375.082 320.005 374.696 319.636C373.635 318.62 371.235 316.751 367.997 316.82Z" fill="#F5F5F5"/>
<path d="M363.104 319.263C363.104 319.263 364.171 317.757 366.135 317.88C366.135 317.88 370.145 318.187 372.522 320.622C373.128 321.243 373.036 322.247 372.256 322.629C371.792 322.855 371.245 322.763 370.877 322.402C369.804 321.348 367.658 319.14 363.104 319.263Z" fill="#F5F5F5"/>
<path d="M357.726 321.42C357.726 321.42 358.899 320.066 360.863 320.189C360.863 320.189 364.599 320.507 366.975 322.942C367.582 323.564 367.489 324.567 366.71 324.949C366.246 325.175 365.698 325.084 365.33 324.722C364.257 323.669 362.28 321.296 357.726 321.42Z" fill="#F5F5F5"/>
<path d="M407.461 75.6198C411.957 76.1301 417.272 76.4081 421.563 76.9716C427.094 77.6971 431.41 83.4195 432.758 92.2674C434.242 102.021 428.031 129.97 428.031 129.97L430.021 162.925C421.913 168.898 387.418 172.031 370.22 159.614C370.22 159.614 370.621 103.52 371.966 94.9111C373.815 83.0663 376.703 75.7045 390.066 74.8553L407.461 75.6198Z" fill="#455A64"/>
<path d="M438.179 147.023C436.721 149.46 435.257 151.893 433.753 154.302C433.196 155.194 432.636 156.084 432.053 156.958C431.844 157.271 431.254 157.9 430.957 158.106C430.235 158.607 428.732 158.291 427.858 158.319C423.558 158.461 419.263 158.773 414.987 159.257C414.278 159.337 413.475 159.478 413.093 160.079C412.655 160.766 413.038 161.734 413.699 162.21C414.361 162.686 415.207 162.797 416.016 162.894C417.255 163.043 418.493 163.191 419.731 163.339C420.254 163.402 420.807 163.477 421.215 163.809C422.564 164.907 419.988 166.222 419.213 166.755C417.664 167.821 416.008 168.76 414.274 169.491C406.537 172.753 405.593 175.115 407.017 177.795C408.258 180.128 413.607 188.612 427.198 181.308C432.671 178.366 441.007 169.074 444.799 164.581C450.271 158.098 459.511 143.623 459.511 143.623C464.765 136.406 465.447 133.445 465.563 130.439C465.679 127.432 449.372 104.375 443.843 96.2791C438.315 88.1833 435.666 78.3216 421.564 76.9697C421.564 76.9697 416.2 93.9943 425.085 105.009L445.621 133.65C445.62 133.653 440.18 143.677 438.179 147.023Z" fill="#FFA8A7"/>
<path d="M453.072 107.288C450.44 103.479 447.688 99.5588 445.029 95.6756C433.849 79.3526 434.784 76.3633 418.66 76.1329C417.233 78.3273 416.382 87.7445 418.533 97.2093C420.341 105.162 427.074 110.766 427.074 110.766L435.152 121.706C435.152 121.706 440.091 121.555 446.016 117.211C451.94 112.867 453.072 107.288 453.072 107.288Z" fill="#37474F"/>
<path d="M418.088 32.717C415.044 28.4606 410.616 29.1936 410.616 29.1936L409.784 49.6331L408.435 57.1834L408.673 65.5829C408.673 65.5829 410.949 65.4696 412.323 62.8087C413.573 60.3907 417.047 48.6953 417.047 48.6953L417.032 48.7106C420.226 39.1135 419.553 34.7657 418.088 32.717Z" fill="#263238"/>
<path d="M408.823 49.7245C409.222 48.444 409.615 47.7224 410.795 46.4658C411.968 45.2158 416.633 43.8478 418.759 47.81C420.926 51.8484 417.303 56.9987 414.543 58.599C411.004 60.6506 408.931 57.8555 408.931 57.8555L409.013 76.6727C407.368 80.4579 399.931 83.8737 395.513 83.312C391.986 82.8636 388.737 80.0885 391.887 76.052L391.635 70.6904C391.635 70.6904 386.925 71.6462 384.592 71.4034C380.711 70.9988 378.137 68.08 376.761 63.9683C374.552 57.3643 373.572 51.9921 374.51 38.7422C375.54 24.2194 392.323 23.236 401.674 28.4939C411.024 33.7499 408.823 49.7245 408.823 49.7245Z" fill="#FFA8A7"/>
<path d="M369.164 23.6863C368.739 20.5162 369.836 17.1166 373.153 15.9942C375.655 15.144 378.222 15.1935 380.525 17.2203C381.348 14.986 383.507 13.3048 385.875 13.0563C388.242 12.8078 390.704 14.0026 391.973 16.017C392.975 14.6062 394.158 13.756 395.8 13.3562C397.719 12.8897 400.094 13.3781 401.454 14.3824C402.814 15.3868 404.4 17.2832 403.998 19.6479C406.676 18.5769 409.463 19.4652 411.45 21.8337C412.641 23.2541 413.292 25.0924 413.346 26.9384C413.373 27.837 413.317 28.9338 412.944 29.7687C412.556 30.6388 411.775 31.2071 411.552 32.1886C411.342 33.1102 410.916 33.9632 411.043 34.8914C411.261 36.4926 411.614 38.0844 411.824 39.6923C412.027 41.2431 412.208 42.8111 412.216 44.3771C412.22 45.1263 411.685 45.6566 411.061 46.2097C410.044 47.1112 409.815 47.5815 409.06 49.1142C408.723 49.7978 408.402 51.4895 407.739 51.9531C405.712 53.3687 405.488 48.7753 405.391 47.8957C405.292 47.016 405.266 44.7141 405.433 41.7943C404.783 41.7524 402.106 41.7096 400.035 39.3115C399.359 38.528 398.832 37.3361 398.694 36.327C398.606 35.6777 398.508 35.1113 398.536 34.4601C397.218 36.6478 394.136 37.5436 391.951 37.3466C388.272 37.0153 387.012 35.4454 386.419 34.2868C386.149 35.3141 385.703 36.6278 384.958 37.3904C384.018 38.3519 382.765 38.9336 381.663 39.3096C379.611 40.0093 377.163 39.1287 375.65 37.577C374.157 39.7209 370.369 38.7651 369.53 38.1615C367.606 36.7801 367.01 35.1408 366.8 32.7817C366.592 30.4227 367.541 27.7523 370.146 26.826C369.651 25.8816 369.314 24.7983 369.164 23.6863Z" fill="#263238"/>
<path d="M391.635 70.6904C391.635 70.6904 400.148 68.5313 403.075 66.7844C405.034 65.6153 406.599 63.6789 407.027 62.467C407.027 62.467 406.59 65.046 404.907 67.4336C402.847 70.3534 391.749 72.9781 391.749 72.9781L391.635 70.6904Z" fill="#F28F8F"/>
<path d="M392.11 49.0981C392.162 50.1568 393.03 50.9717 394.049 50.9174C395.068 50.8641 395.85 49.9635 395.798 48.9049C395.746 47.8472 394.877 47.0323 393.859 47.0856C392.841 47.1389 392.058 48.0405 392.11 49.0981Z" fill="#263238"/>
<path d="M389.261 62.8688C389.329 64.2311 390.446 65.2812 391.758 65.2117C393.07 65.1431 394.077 63.9827 394.01 62.6203C393.942 61.258 392.824 60.2089 391.513 60.2775C390.202 60.346 389.193 61.5065 389.261 62.8688Z" fill="#F28F8F"/>
<path d="M393.645 42.7587L397.566 44.676C398.074 43.5517 397.609 42.2104 396.525 41.6811C395.443 41.1508 394.153 41.6335 393.645 42.7587Z" fill="#263238"/>
<path d="M376.581 44.4L379.929 41.5468C379.169 40.5853 377.805 40.4454 376.88 41.2327C375.956 42.0209 375.822 43.4384 376.581 44.4Z" fill="#263238"/>
<path d="M377.584 48.7268C377.634 49.7502 378.474 50.5385 379.46 50.4871C380.445 50.4356 381.202 49.5636 381.152 48.5402C381.101 47.5168 380.261 46.7286 379.276 46.78C378.29 46.8304 377.532 47.7025 377.584 48.7268Z" fill="#263238"/>
<path d="M386.419 46.6077L386.363 57.8736L380.397 56.1648L386.419 46.6077Z" fill="#F28F8F"/>
<path d="M371.46 62.3661C371.568 62.3423 371.666 62.2785 371.731 62.1795C371.867 61.9767 371.812 61.7016 371.61 61.5664L366.435 58.1192C366.232 57.984 365.958 58.0392 365.822 58.242C365.687 58.4448 365.741 58.7199 365.944 58.8551L371.118 62.3023C371.223 62.3718 371.346 62.3918 371.46 62.3661Z" fill="#E0E0E0"/>
<path d="M370.905 64.5918C371.066 64.5556 371.2 64.4319 371.24 64.2595C371.295 64.0216 371.147 63.7845 370.909 63.7283L364.853 62.3241C364.617 62.268 364.377 62.4165 364.322 62.6554C364.267 62.8934 364.415 63.1305 364.653 63.1857L370.71 64.5899C370.776 64.6061 370.842 64.6051 370.905 64.5918Z" fill="#E0E0E0"/>
<path d="M365.284 68.6207C365.303 68.6159 365.322 68.6112 365.34 68.6045L371.178 66.4682C371.408 66.3844 371.526 66.1303 371.442 65.9008C371.357 65.6714 371.086 65.5572 370.874 65.6371L365.037 67.7725C364.807 67.8562 364.689 68.1104 364.773 68.3399C364.851 68.5521 365.072 68.6683 365.284 68.6207Z" fill="#E0E0E0"/>
<path d="M315.909 114.286C316.062 114.595 316.329 114.844 316.676 114.969C317.391 115.227 318.183 114.856 318.441 114.142L322.789 103.432C323.046 102.715 322.675 101.926 321.959 101.668C321.244 101.41 320.453 101.782 320.195 102.496L315.846 113.206C315.716 113.575 315.748 113.962 315.909 114.286Z" fill="#E0E0E0"/>
<path d="M308.764 114.27C308.993 114.731 309.47 115.043 310.018 115.035C310.779 115.024 311.386 114.399 311.376 113.638L311.238 100.278C311.23 99.5217 310.602 98.9076 309.84 98.92C309.079 98.9305 308.472 99.5569 308.483 100.318L308.621 113.678C308.623 113.889 308.676 114.092 308.764 114.27Z" fill="#E0E0E0"/>
<path d="M296.64 106.819C296.668 106.874 296.699 106.928 296.732 106.978L303.291 116.501C303.716 117.134 304.572 117.3 305.204 116.876C305.836 116.448 305.978 115.542 305.577 114.963L299.019 105.44C298.594 104.807 297.738 104.641 297.106 105.065C296.527 105.457 296.339 106.211 296.64 106.819Z" fill="#E0E0E0"/>
</g>
<defs>
<clipPath id="clip0_37_5171">
<rect width="476" height="409" fill="white"/>
</clipPath>
</defs>
</svg>
